<?xml version="1.0" encoding="UTF-8"?><svg xmlns="http://www.w3.org/2000/svg" viewBox="0 0 130 140"><defs><style>.cls-1{fill:#2b3136;}.cls-2{fill:#131b1e;}.cls-3{fill:#e2574c;}.cls-4{fill:#44ba4a;}.cls-5{fill:#d65348;}.cls-6{fill:#1d8d22;}.cls-7{fill:#c04b41;}</style></defs><g id="Layer_35" data-name="Layer 35"><path class="cls-1" d="M4.37824,42.96769V97.03231a13.80044,13.80044,0,0,0,6.90021,11.95152l46.82134,27.03231a13.80041,13.80041,0,0,0,13.80042,0l46.82134-27.03231a13.80044,13.80044,0,0,0,6.90021-11.95152V42.96769a13.80044,13.80044,0,0,0-6.90021-11.95152L71.90021,3.98386a13.80041,13.80041,0,0,0-13.80042,0L11.27845,31.01617A13.80044,13.80044,0,0,0,4.37824,42.96769Z"/><path class="cls-2" d="M51.65585,74.647a13.23778,13.23778,0,0,0-6.55975,4.01644,13.72831,13.72831,0,0,1,5.39158-2.84827,13.15043,13.15043,0,0,1,6.14729-.34933V74.14115A13.55877,13.55877,0,0,0,51.65585,74.647ZM44.95252,63.51132,33.28628,66.58484a6.39331,6.39331,0,0,0,.60632.7011l9.8915-2.60645a7.23818,7.23818,0,0,1-1.35741,3.42187A6.95533,6.95533,0,0,0,44.95252,63.51132ZM54.71792,90.929C38.30042,95.35083,29.61446,76.32464,26.98471,66.4493A55.32923,55.32923,0,0,1,25.098,56.21073a3.77594,3.77594,0,0,1,.00819-.605c-.85165.05143-1.25939.49413-1.17643,1.77346a55.36725,55.36725,0,0,0,1.88672,10.23857C28.445,77.4916,37.13218,96.51779,53.54974,92.09594a16.66975,16.66975,0,0,0,8.2735-4.95449A17.01126,17.01126,0,0,1,54.71792,90.929Zm3.08522-39.06184v1.16841h6.43957c-.13213-.41369-.26523-.78642-.39735-1.16841Z"/><path class="cls-2" d="M65.682,61.48993a8.06411,8.06411,0,0,1,5.23727,4.64977l3.22905.91709s-.4405-6.28868-6.12876-7.90442c-5.32137-1.5119-8.596,2.95675-8.99434,3.535A7.54817,7.54817,0,0,1,65.682,61.48993Zm25.70392,4.67878c-5.32624-1.51872-8.59966,2.95919-8.99214,3.52938A7.53978,7.53978,0,0,1,89.0493,68.5053a8.07449,8.07449,0,0,1,5.23386,4.64978l3.23367.92049S97.06926,67.78568,91.38588,66.16871ZM88.1778,82.74983l-26.86161-7.5095a12.10317,12.10317,0,0,0,1.40658,3.38336L85.339,84.94625A12.05706,12.05706,0,0,0,88.1778,82.74983Zm-18.62322,16.164c-21.26917-5.70239-18.69782-32.80218-15.2562-45.64378a76.971,76.971,0,0,1,4.082-11.86236c-.72084-.14839-1.31785.23131-1.90779,1.4311A72.18073,72.18073,0,0,0,51.962,55.60665c-3.44064,12.84136-6.012,39.94018,15.2562,45.64258C77.243,103.9349,85.0526,99.85312,90.8742,93.4428,85.3483,98.44776,78.2932,101.25385,69.55458,98.91385Z"/><path class="cls-3" d="M57.80314,84.57839V79.10978L42.609,83.41826s1.12273-6.52343,9.04689-8.77128a13.14724,13.14724,0,0,1,6.14729-.34933V51.86714h7.60774a45.56921,45.56921,0,0,0-2.3027-5.89962c-1.11332-2.26638-2.25468-.764-4.84577,1.40318A36.09387,36.09387,0,0,1,44.88475,54.018a35.90851,35.90851,0,0,1-14.89293.96973c-3.319-.57262-5.05505-1.30151-4.89264,1.223A55.36138,55.36138,0,0,0,26.9859,66.4493c2.62856,9.87412,11.31569,28.90031,27.73323,24.47847a16.49271,16.49271,0,0,0,9.41364-6.3506H57.80314Zm-24.518-17.99355,11.66739-3.07352a6.54738,6.54738,0,0,1-4.714,5.64145A6.69555,6.69555,0,0,1,33.28513,66.58484Z"/><path class="cls-4" d="M101.71319,52.12651a46.45671,46.45671,0,0,1-19.30068-1.21619,46.43227,46.43227,0,0,1-17.32634-8.60177c-3.35167-2.80732-4.826-4.7583-6.277-1.80727a72.25355,72.25355,0,0,0-4.51082,12.769c-3.4404,12.84136-6.01175,39.94017,15.2562,45.64257C90.81813,104.6104,102.13833,79.855,105.579,67.01242a72.49124,72.49124,0,0,0,2.47554-13.31331C108.27294,50.41984,106.02045,51.37178,101.71319,52.12651ZM58.982,62.75074s3.35167-5.2129,9.03627-3.59715c5.68826,1.61574,6.12876,7.90442,6.12876,7.90442Zm13.87643,23.392c-9.99893-2.929-11.54106-10.90237-11.54106-10.90237l26.8604,7.50975C88.1778,82.74886,82.756,89.0351,72.85846,86.1427Zm9.49677-16.3861s3.347-5.20924,9.03065-3.58886c5.68338,1.61818,6.13095,7.90685,6.13095,7.90685Z"/><path class="cls-5" d="M52.49347,80.61558,42.609,83.41705s1.07373-6.11682,8.3553-8.54092L45.36718,53.871l-.48365.147a35.904,35.904,0,0,1-14.89288.96973c-3.319-.57238-5.055-1.30151-4.89264,1.22327a55.3664,55.3664,0,0,0,1.88672,10.23857c2.62858,9.87388,11.31572,28.90007,27.73319,24.47823l.48365-.15187ZM33.28513,66.58508l11.66739-3.07376a6.54738,6.54738,0,0,1-4.714,5.64145A6.69562,6.69562,0,0,1,33.28513,66.58508Z"/><path class="cls-6" d="M73.30945,86.2524l-.45221-.10994c-9.99893-2.92872-11.54105-10.90213-11.54105-10.90213L75.167,79.112,82.5,50.93372l-.08874-.0234A46.43435,46.43435,0,0,1,65.085,42.30855c-3.35166-2.80732-4.826-4.7583-6.277-1.80727a72.37351,72.37351,0,0,0-4.5096,12.769c-3.4404,12.84136-6.01175,39.94017,15.2562,45.64232l.43587.09825ZM58.982,62.75074s3.35167-5.2129,9.03627-3.59715c5.68826,1.61574,6.12876,7.90442,6.12876,7.90442Z"/><path class="cls-7" d="M52.99711,80.472l-2.65082.75229a30.304,30.304,0,0,0,3.46259,9.91142c.30155-.06655.60066-.12384.90782-.20794a19.22392,19.22392,0,0,0,2.27-.77935A28.0739,28.0739,0,0,1,52.99711,80.472ZM51.962,55.6069a67.73711,67.73711,0,0,0-2.24541,19.74215,15.33254,15.33254,0,0,1,1.93923-.70329l.49072-.1097a66.64121,66.64121,0,0,1,2.15181-21.26575c.36932-1.37514.73961-2.65423,1.10869-3.847-.59457.37834-1.23472.76618-1.96386,1.16573C52.95152,52.10677,52.455,53.76566,51.962,55.6069Z"/></g></svg>